<mxfile host="embed.diagrams.net" modified="2020-08-20T05:49:35.225Z" agent="5.0 (Macintosh; Intel Mac OS X 10_15_6) AppleWebKit/537.36 (KHTML, like Gecko) Code/1.48.0 Chrome/78.0.3904.130 Electron/7.3.2 Safari/537.36" etag="eiA9cu5sDz7qSFXQefIh" version="13.6.3">
    <diagram id="6hGFLwfOUW9BJ-s0fimq" name="Page-1">
        <mxGraphModel dx="658" dy="529" grid="1" gridSize="10" guides="1" tooltips="1" connect="1" arrows="1" fold="1" page="1" pageScale="1" pageWidth="827" pageHeight="1169" background="#ffffff" math="0" shadow="0">
            <root>
                <mxCell id="0"/>
                <mxCell id="1" parent="0"/>
                <mxCell id="2" value="" style="shape=cylinder;whiteSpace=wrap;html=1;boundedLbl=1;backgroundOutline=1;rotation=90;fillColor=#dae8fc;strokeColor=#6c8ebf;strokeWidth=10;fontColor=#000000;fontStyle=0;horizontal=1;fontSize=25;" parent="1" vertex="1">
                    <mxGeometry x="300" y="-30" width="100" height="270" as="geometry"/>
                </mxCell>
                <mxCell id="4" value="1" style="shape=hexagon;perimeter=hexagonPerimeter2;whiteSpace=wrap;html=1;fillColor=#dae8fc;strokeColor=#6c8ebf;strokeWidth=10;fontColor=#000000;fontStyle=0;horizontal=1;fontSize=25;" parent="1" vertex="1">
                    <mxGeometry x="110" y="85" width="50" height="40" as="geometry"/>
                </mxCell>
                <mxCell id="7" value="" style="shape=cylinder;whiteSpace=wrap;html=1;boundedLbl=1;backgroundOutline=1;rotation=90;fillColor=#dae8fc;strokeColor=#6c8ebf;strokeWidth=10;fontColor=#000000;fontStyle=0;horizontal=1;fontSize=25;" parent="1" vertex="1">
                    <mxGeometry x="290" y="110" width="100" height="270" as="geometry"/>
                </mxCell>
                <mxCell id="8" value="1" style="shape=hexagon;perimeter=hexagonPerimeter2;whiteSpace=wrap;html=1;fillColor=#dae8fc;strokeColor=#6c8ebf;strokeWidth=10;fontColor=#000000;fontStyle=0;horizontal=1;fontSize=25;" parent="1" vertex="1">
                    <mxGeometry x="389" y="225" width="50" height="40" as="geometry"/>
                </mxCell>
                <mxCell id="9" value="2" style="shape=hexagon;perimeter=hexagonPerimeter2;whiteSpace=wrap;html=1;fillColor=#dae8fc;strokeColor=#6c8ebf;strokeWidth=10;fontColor=#000000;fontStyle=0;horizontal=1;fontSize=25;" parent="1" vertex="1">
                    <mxGeometry x="110" y="225" width="50" height="40" as="geometry"/>
                </mxCell>
                <mxCell id="12" value="" style="shape=flexArrow;endArrow=classic;html=1;entryX=0.5;entryY=1;entryDx=0;entryDy=0;exitX=1;exitY=0.5;exitDx=0;exitDy=0;fillColor=#dae8fc;strokeColor=#6c8ebf;strokeWidth=10;fontColor=#000000;fontStyle=0;horizontal=1;fontSize=25;" parent="1" source="4" target="2" edge="1">
                    <mxGeometry width="50" height="50" relative="1" as="geometry">
                        <mxPoint x="310" y="280" as="sourcePoint"/>
                        <mxPoint x="360" y="230" as="targetPoint"/>
                    </mxGeometry>
                </mxCell>
                <mxCell id="13" value="" style="shape=flexArrow;endArrow=classic;html=1;entryX=0.5;entryY=1;entryDx=0;entryDy=0;exitX=1;exitY=0.5;exitDx=0;exitDy=0;fillColor=#dae8fc;strokeColor=#6c8ebf;strokeWidth=10;fontColor=#000000;fontStyle=0;horizontal=1;fontSize=25;" parent="1" source="9" target="7" edge="1">
                    <mxGeometry width="50" height="50" relative="1" as="geometry">
                        <mxPoint x="170" y="115" as="sourcePoint"/>
                        <mxPoint x="225" y="115" as="targetPoint"/>
                    </mxGeometry>
                </mxCell>
                <mxCell id="14" value="" style="shape=cylinder;whiteSpace=wrap;html=1;boundedLbl=1;backgroundOutline=1;rotation=90;fillColor=#dae8fc;strokeColor=#6c8ebf;strokeWidth=10;fontColor=#000000;fontStyle=0;horizontal=1;fontSize=25;" parent="1" vertex="1">
                    <mxGeometry x="290" y="250" width="100" height="270" as="geometry"/>
                </mxCell>
                <mxCell id="15" value="1" style="shape=hexagon;perimeter=hexagonPerimeter2;whiteSpace=wrap;html=1;fillColor=#dae8fc;strokeColor=#6c8ebf;strokeWidth=10;fontColor=#000000;fontStyle=0;horizontal=1;fontSize=25;" parent="1" vertex="1">
                    <mxGeometry x="530" y="365" width="50" height="40" as="geometry"/>
                </mxCell>
                <mxCell id="17" value="2" style="shape=hexagon;perimeter=hexagonPerimeter2;whiteSpace=wrap;html=1;fillColor=#dae8fc;strokeColor=#6c8ebf;strokeWidth=10;fontColor=#000000;fontStyle=0;horizontal=1;fontSize=25;" parent="1" vertex="1">
                    <mxGeometry x="325" y="365" width="50" height="40" as="geometry"/>
                </mxCell>
                <mxCell id="22" value="" style="shape=flexArrow;endArrow=classic;html=1;entryX=0;entryY=0.5;entryDx=0;entryDy=0;fillColor=#dae8fc;strokeColor=#6c8ebf;strokeWidth=10;fontColor=#000000;fontStyle=0;horizontal=1;fontSize=25;" parent="1" source="14" target="15" edge="1">
                    <mxGeometry width="50" height="50" relative="1" as="geometry">
                        <mxPoint x="170" y="255" as="sourcePoint"/>
                        <mxPoint x="215" y="255" as="targetPoint"/>
                    </mxGeometry>
                </mxCell>
            </root>
        </mxGraphModel>
    </diagram>
</mxfile>